<svg width="500" height="500" viewBox="0 0 500 500" xmlns="http://www.w3.org/2000/svg">
  <!-- Background glow -->
  <defs>
    <radialGradient id="glow" cx="50%" cy="50%" r="50%">
      <stop offset="0%" style="stop-color:#9A66FF;stop-opacity:0.3" />
      <stop offset="100%" style="stop-color:#9A66FF;stop-opacity:0" />
    </radialGradient>
    <filter id="shadow" x="-50%" y="-50%" width="200%" height="200%">
      <feDropShadow dx="0" dy="8" stdDeviation="12" flood-color="#9A66FF" flood-opacity="0.4"/>
    </filter>
  </defs>
  
  <!-- Glow background -->
  <circle cx="250" cy="250" r="200" fill="url(#glow)" />
  
  <!-- Cat body -->
  <ellipse cx="250" cy="320" rx="80" ry="100" fill="#9A66FF" filter="url(#shadow)" />
  
  <!-- Cat head -->
  <circle cx="250" cy="200" r="70" fill="#9A66FF" filter="url(#shadow)" />
  
  <!-- Cat ears -->
  <polygon points="200,150 220,120 240,150" fill="#9A66FF" />
  <polygon points="260,150 280,120 300,150" fill="#9A66FF" />
  
  <!-- Inner ears -->
  <polygon points="205,145 215,130 225,145" fill="#B888FF" />
  <polygon points="275,145 285,130 295,145" fill="#B888FF" />
  
  <!-- Eyes -->
  <circle cx="230" cy="190" r="8" fill="#FFFFFF" />
  <circle cx="270" cy="190" r="8" fill="#FFFFFF" />
  <circle cx="232" cy="188" r="4" fill="#000000" />
  <circle cx="272" cy="188" r="4" fill="#000000" />
  
  <!-- Nose -->
  <polygon points="250,205 245,215 255,215" fill="#FF69B4" />
  
  <!-- Mouth -->
  <path d="M 250 220 Q 240 230 230 225" stroke="#000000" stroke-width="2" fill="none" />
  <path d="M 250 220 Q 260 230 270 225" stroke="#000000" stroke-width="2" fill="none" />
  
  <!-- Whiskers -->
  <line x1="200" y1="200" x2="170" y2="195" stroke="#000000" stroke-width="2" />
  <line x1="200" y1="210" x2="170" y2="210" stroke="#000000" stroke-width="2" />
  <line x1="300" y1="200" x2="330" y2="195" stroke="#000000" stroke-width="2" />
  <line x1="300" y1="210" x2="330" y2="210" stroke="#000000" stroke-width="2" />
  
  <!-- Waving arm -->
  <ellipse cx="320" cy="280" rx="15" ry="40" fill="#9A66FF" transform="rotate(-30 320 280)" />
  <circle cx="335" cy="260" r="12" fill="#9A66FF" />
  
  <!-- Other arm -->
  <ellipse cx="180" cy="300" rx="15" ry="35" fill="#9A66FF" />
  <circle cx="180" cy="335" r="12" fill="#9A66FF" />
  
  <!-- Legs -->
  <ellipse cx="220" cy="400" rx="12" ry="30" fill="#9A66FF" />
  <ellipse cx="280" cy="400" rx="12" ry="30" fill="#9A66FF" />
  
  <!-- Paws -->
  <circle cx="220" cy="430" r="10" fill="#9A66FF" />
  <circle cx="280" cy="430" r="10" fill="#9A66FF" />
  
  <!-- Tail -->
  <path d="M 180 350 Q 120 320 140 280 Q 160 240 120 220" stroke="#9A66FF" stroke-width="20" fill="none" stroke-linecap="round" />
  
  <!-- Tron-style suit details -->
  <path d="M 200 300 L 300 300" stroke="#00FFFF" stroke-width="2" opacity="0.8" />
  <path d="M 210 320 L 290 320" stroke="#00FFFF" stroke-width="2" opacity="0.8" />
  <path d="M 220 340 L 280 340" stroke="#00FFFF" stroke-width="2" opacity="0.8" />
  
  <!-- Chest emblem -->
  <circle cx="250" cy="310" r="15" fill="none" stroke="#00FFFF" stroke-width="2" opacity="0.8" />
  <circle cx="250" cy="310" r="8" fill="#00FFFF" opacity="0.6" />
</svg>